<mxfile host="app.diagrams.net" agent="Mozilla/5.0 (Windows NT 10.0; Win64; x64) AppleWebKit/537.36 (KHTML, like Gecko) Chrome/129.0.0.0 Safari/537.36" version="24.8.6">
  <diagram name="Trang-1" id="VvPEmoD8u6Hq72m2BYgN">
    <mxGraphModel grid="1" page="1" gridSize="10" guides="1" tooltips="1" connect="1" arrows="1" fold="1" pageScale="1" pageWidth="827" pageHeight="1169" math="0" shadow="0">
      <root>
        <mxCell id="0" />
        <mxCell id="1" parent="0" />
        <mxCell id="o0HxUDY8-MQT9quB1aCL-1" value="" style="ellipse;whiteSpace=wrap;html=1;" vertex="1" parent="1">
          <mxGeometry x="95" y="120" width="120" height="80" as="geometry" />
        </mxCell>
        <mxCell id="o0HxUDY8-MQT9quB1aCL-2" value="Bắt đầu chương trình" style="text;strokeColor=none;align=center;fillColor=none;html=1;verticalAlign=middle;whiteSpace=wrap;rounded=0;" vertex="1" parent="1">
          <mxGeometry x="125" y="144" width="60" height="30" as="geometry" />
        </mxCell>
        <mxCell id="o0HxUDY8-MQT9quB1aCL-3" value="" style="endArrow=classic;html=1;rounded=0;exitX=0.5;exitY=1;exitDx=0;exitDy=0;" edge="1" parent="1">
          <mxGeometry width="50" height="50" relative="1" as="geometry">
            <mxPoint x="155" y="199" as="sourcePoint" />
            <mxPoint x="155" y="239" as="targetPoint" />
          </mxGeometry>
        </mxCell>
        <mxCell id="o0HxUDY8-MQT9quB1aCL-4" value="" style="shape=parallelogram;perimeter=parallelogramPerimeter;whiteSpace=wrap;html=1;fixedSize=1;" vertex="1" parent="1">
          <mxGeometry x="95" y="239" width="120" height="60" as="geometry" />
        </mxCell>
        <mxCell id="o0HxUDY8-MQT9quB1aCL-5" value="Nhập điểm" style="text;strokeColor=none;align=center;fillColor=none;html=1;verticalAlign=middle;whiteSpace=wrap;rounded=0;" vertex="1" parent="1">
          <mxGeometry x="125" y="254" width="60" height="30" as="geometry" />
        </mxCell>
        <mxCell id="o0HxUDY8-MQT9quB1aCL-6" value="" style="endArrow=classic;html=1;rounded=0;exitX=0.5;exitY=1;exitDx=0;exitDy=0;exitPerimeter=0;" edge="1" parent="1" source="o0HxUDY8-MQT9quB1aCL-4" target="o0HxUDY8-MQT9quB1aCL-7">
          <mxGeometry width="50" height="50" relative="1" as="geometry">
            <mxPoint x="125" y="339" as="sourcePoint" />
            <mxPoint x="155" y="329" as="targetPoint" />
          </mxGeometry>
        </mxCell>
        <mxCell id="o0HxUDY8-MQT9quB1aCL-7" value="" style="rhombus;whiteSpace=wrap;html=1;" vertex="1" parent="1">
          <mxGeometry x="95" y="329" width="120" height="80" as="geometry" />
        </mxCell>
        <mxCell id="o0HxUDY8-MQT9quB1aCL-8" value="Kiểm tra điểm" style="text;strokeColor=none;align=center;fillColor=none;html=1;verticalAlign=middle;whiteSpace=wrap;rounded=0;" vertex="1" parent="1">
          <mxGeometry x="125" y="354" width="60" height="30" as="geometry" />
        </mxCell>
        <mxCell id="o0HxUDY8-MQT9quB1aCL-10" value="" style="endArrow=classic;html=1;rounded=0;exitX=1;exitY=0.5;exitDx=0;exitDy=0;" edge="1" parent="1" source="o0HxUDY8-MQT9quB1aCL-7">
          <mxGeometry width="50" height="50" relative="1" as="geometry">
            <mxPoint x="165" y="399" as="sourcePoint" />
            <mxPoint x="255" y="369" as="targetPoint" />
          </mxGeometry>
        </mxCell>
        <mxCell id="o0HxUDY8-MQT9quB1aCL-12" value="" style="endArrow=none;html=1;rounded=0;exitX=0.5;exitY=1;exitDx=0;exitDy=0;" edge="1" parent="1" source="o0HxUDY8-MQT9quB1aCL-7">
          <mxGeometry width="50" height="50" relative="1" as="geometry">
            <mxPoint x="165" y="399" as="sourcePoint" />
            <mxPoint x="155" y="439" as="targetPoint" />
          </mxGeometry>
        </mxCell>
        <mxCell id="o0HxUDY8-MQT9quB1aCL-13" value="" style="rounded=0;whiteSpace=wrap;html=1;" vertex="1" parent="1">
          <mxGeometry x="252" y="339" width="120" height="60" as="geometry" />
        </mxCell>
        <mxCell id="o0HxUDY8-MQT9quB1aCL-14" value="điểm &amp;gt;=5" style="text;strokeColor=none;align=center;fillColor=none;html=1;verticalAlign=middle;whiteSpace=wrap;rounded=0;" vertex="1" parent="1">
          <mxGeometry x="282" y="354" width="60" height="30" as="geometry" />
        </mxCell>
        <mxCell id="o0HxUDY8-MQT9quB1aCL-15" value="" style="endArrow=classic;html=1;rounded=0;exitX=1;exitY=0.5;exitDx=0;exitDy=0;" edge="1" parent="1" source="o0HxUDY8-MQT9quB1aCL-13" target="o0HxUDY8-MQT9quB1aCL-16">
          <mxGeometry width="50" height="50" relative="1" as="geometry">
            <mxPoint x="430" y="350" as="sourcePoint" />
            <mxPoint x="430" y="370" as="targetPoint" />
          </mxGeometry>
        </mxCell>
        <mxCell id="o0HxUDY8-MQT9quB1aCL-16" value="" style="rounded=0;whiteSpace=wrap;html=1;" vertex="1" parent="1">
          <mxGeometry x="410" y="339" width="120" height="60" as="geometry" />
        </mxCell>
        <mxCell id="o0HxUDY8-MQT9quB1aCL-17" value="Đạt" style="text;strokeColor=none;align=center;fillColor=none;html=1;verticalAlign=middle;whiteSpace=wrap;rounded=0;" vertex="1" parent="1">
          <mxGeometry x="440" y="354" width="60" height="30" as="geometry" />
        </mxCell>
        <mxCell id="o0HxUDY8-MQT9quB1aCL-19" value="" style="rounded=0;whiteSpace=wrap;html=1;" vertex="1" parent="1">
          <mxGeometry x="95" y="440" width="120" height="60" as="geometry" />
        </mxCell>
        <mxCell id="o0HxUDY8-MQT9quB1aCL-20" value="" style="rounded=0;whiteSpace=wrap;html=1;" vertex="1" parent="1">
          <mxGeometry x="260" y="440" width="120" height="60" as="geometry" />
        </mxCell>
        <mxCell id="o0HxUDY8-MQT9quB1aCL-21" value="điểm &amp;lt; 5" style="text;strokeColor=none;align=center;fillColor=none;html=1;verticalAlign=middle;whiteSpace=wrap;rounded=0;" vertex="1" parent="1">
          <mxGeometry x="125" y="455" width="60" height="30" as="geometry" />
        </mxCell>
        <mxCell id="o0HxUDY8-MQT9quB1aCL-22" value="" style="endArrow=classic;html=1;rounded=0;exitX=1;exitY=0.5;exitDx=0;exitDy=0;" edge="1" parent="1" source="o0HxUDY8-MQT9quB1aCL-19" target="o0HxUDY8-MQT9quB1aCL-20">
          <mxGeometry width="50" height="50" relative="1" as="geometry">
            <mxPoint x="430" y="350" as="sourcePoint" />
            <mxPoint x="480" y="300" as="targetPoint" />
          </mxGeometry>
        </mxCell>
        <mxCell id="o0HxUDY8-MQT9quB1aCL-23" value="Không đạt" style="text;strokeColor=none;align=center;fillColor=none;html=1;verticalAlign=middle;whiteSpace=wrap;rounded=0;" vertex="1" parent="1">
          <mxGeometry x="290" y="455" width="60" height="30" as="geometry" />
        </mxCell>
        <mxCell id="o0HxUDY8-MQT9quB1aCL-24" value="" style="endArrow=classic;html=1;rounded=0;exitX=1;exitY=0.5;exitDx=0;exitDy=0;" edge="1" parent="1" source="o0HxUDY8-MQT9quB1aCL-20">
          <mxGeometry width="50" height="50" relative="1" as="geometry">
            <mxPoint x="430" y="350" as="sourcePoint" />
            <mxPoint x="470" y="470" as="targetPoint" />
          </mxGeometry>
        </mxCell>
        <mxCell id="o0HxUDY8-MQT9quB1aCL-25" value="" style="endArrow=classic;html=1;rounded=0;exitX=0.5;exitY=1;exitDx=0;exitDy=0;" edge="1" parent="1" source="o0HxUDY8-MQT9quB1aCL-16">
          <mxGeometry width="50" height="50" relative="1" as="geometry">
            <mxPoint x="430" y="350" as="sourcePoint" />
            <mxPoint x="470" y="530" as="targetPoint" />
          </mxGeometry>
        </mxCell>
        <mxCell id="o0HxUDY8-MQT9quB1aCL-26" value="" style="ellipse;whiteSpace=wrap;html=1;" vertex="1" parent="1">
          <mxGeometry x="410" y="530" width="120" height="80" as="geometry" />
        </mxCell>
        <mxCell id="o0HxUDY8-MQT9quB1aCL-27" value="Kết thúc chương trình" style="text;strokeColor=none;align=center;fillColor=none;html=1;verticalAlign=middle;whiteSpace=wrap;rounded=0;" vertex="1" parent="1">
          <mxGeometry x="440" y="555" width="60" height="30" as="geometry" />
        </mxCell>
      </root>
    </mxGraphModel>
  </diagram>
</mxfile>
